<?xml version="1.0" encoding="UTF-8" standalone="no"?>
<!DOCTYPE svg PUBLIC "-//W3C//DTD SVG 1.1//EN" "http://www.w3.org/Graphics/SVG/1.1/DTD/svg11.dtd">
<svg width="700.00" height="200.00" viewBox="0.00 0.00 1400.00 400.00" xmlns="http://www.w3.org/2000/svg" xmlns:xlink="http://www.w3.org/1999/xlink">
<g stroke-linecap="round" transform="translate(-223.00, -126.00)" id="Layer_7">
<path d="M282.25,326.67 L373.33,326.67" fill="none" stroke="rgb(0, 0, 0)" stroke-width="13.50" stroke-opacity="1.00" stroke-linejoin="round"/>
<path d="M375.00,327.00 L418.33,230.33" fill="none" stroke="rgb(0, 0, 0)" stroke-width="13.50" stroke-opacity="1.00" stroke-linejoin="round"/>
<path d="M418.33,230.33 L441.67,398.67" fill="none" stroke="rgb(0, 0, 0)" stroke-width="13.50" stroke-opacity="1.00" stroke-linejoin="round"/>
<path d="M441.50,396.50 L474.50,318.50" fill="none" stroke="rgb(0, 0, 0)" stroke-width="13.50" stroke-opacity="1.00" stroke-linejoin="round"/>
<path d="M476.00,318.50 L621.50,318.50" fill="none" stroke="rgb(0, 0, 0)" stroke-width="13.50" stroke-opacity="1.00" stroke-linejoin="round"/>
<path d="M503.00,318.50 L1388.00,318.50" fill="none" stroke="rgb(0, 0, 0)" stroke-width="13.50" stroke-opacity="1.00" stroke-linejoin="round"/>
<path d="M1391.00,321.50 L1412.00,441.50" fill="none" stroke="rgb(0, 0, 0)" stroke-width="13.50" stroke-opacity="1.00" stroke-linejoin="round"/>
<path d="M1412.00,441.50 L1463.00,198.50" fill="none" stroke="rgb(0, 0, 0)" stroke-width="13.50" stroke-opacity="1.00" stroke-linejoin="round"/>
<path d="M1463.00,198.50 L1488.50,324.50" fill="none" stroke="rgb(0, 0, 0)" stroke-width="13.50" stroke-opacity="1.00" stroke-linejoin="round"/>
<path d="M1488.50,324.50 L1565.00,324.50" fill="none" stroke="rgb(0, 0, 0)" stroke-width="13.50" stroke-opacity="1.00" stroke-linejoin="round"/>
</g>
<g stroke-linecap="round" transform="translate(-155.00, -136.00)" id="Layer_5">
<path d="M803.63,349.53 L798.00,387.33" fill="none" stroke="rgb(255, 255, 255)" stroke-width="10.00" stroke-opacity="1.00" stroke-linejoin="round"/>
<path d="M793.67,414.33 L787.81,453.02" fill="none" stroke="rgb(255, 255, 255)" stroke-width="10.00" stroke-opacity="1.00" stroke-linejoin="round"/>
<path d="M848.26,397.14 L846.42,399.37 L809.32,399.47" fill="none" stroke="rgb(255, 255, 255)" stroke-width="10.00" stroke-opacity="1.00" stroke-linejoin="round"/>
<path d="M781.97,399.30 L745.05,399.40 L746.67,397.92" fill="none" stroke="rgb(255, 255, 255)" stroke-width="10.00" stroke-opacity="1.00" stroke-linejoin="round"/>
</g>
</svg>
